<svg width="34" height="34" viewBox="0 0 34 34" fill="none" xmlns="http://www.w3.org/2000/svg">
<path d="M3.40002 6.8001C3.40002 5.85979 4.15971 5.1001 5.10002 5.1001H28.9C29.8403 5.1001 30.6 5.85979 30.6 6.8001V8.5001C30.6 9.44041 29.8403 10.2001 28.9 10.2001H5.10002C4.15971 10.2001 3.40002 9.44041 3.40002 8.5001V6.8001ZM5.10002 12.7501H28.9V25.5001C28.9 27.3754 27.3753 28.9001 25.5 28.9001H8.50002C6.62471 28.9001 5.10002 27.3754 5.10002 25.5001V12.7501ZM13.175 16.1501C12.4685 16.1501 11.9 16.7185 11.9 17.4251C11.9 18.1317 12.4685 18.7001 13.175 18.7001H20.825C21.5316 18.7001 22.1 18.1317 22.1 17.4251C22.1 16.7185 21.5316 16.1501 20.825 16.1501H13.175Z" fill="#EA8611"/>
</svg>
