<svg width="30" height="30" viewBox="0 0 30 30" fill="none" xmlns="http://www.w3.org/2000/svg">
<path d="M25.1875 16.25H10V13.75H25.1875L23.25 11.8125L25 10L30 15L25 20L23.25 18.1875L25.1875 16.25ZM18.75 11.25V6.25H6.25V23.75H18.75V18.75H21.25V23.75C21.25 24.4375 21.0052 25.026 20.5156 25.5156C20.026 26.0052 19.4375 26.25 18.75 26.25H6.25C5.5625 26.25 4.97396 26.0052 4.48438 25.5156C3.99479 25.026 3.75 24.4375 3.75 23.75V6.25C3.75 5.5625 3.99479 4.97396 4.48438 4.48438C4.97396 3.99479 5.5625 3.75 6.25 3.75H18.75C19.4375 3.75 20.026 3.99479 20.5156 4.48438C21.0052 4.97396 21.25 5.5625 21.25 6.25V11.25H18.75Z" fill="#1D1B20"/>
</svg>
