<svg width="32" height="32" viewBox="0 0 32 32" fill="none" xmlns="http://www.w3.org/2000/svg">
<path d="M4.82495 7.9998V15.4748C4.82495 16.3248 5.15995 17.1398 5.75995 17.7398L15.36 27.3398C16.61 28.5898 18.635 28.5898 19.885 27.3398L27.36 19.8648C28.61 18.6148 28.61 16.5898 27.36 15.3398L17.76 5.7398C17.16 5.1348 16.35 4.7998 15.5 4.7998H8.02495C6.25995 4.7998 4.82495 6.2348 4.82495 7.9998ZM10.425 8.7998C11.31 8.7998 12.025 9.5148 12.025 10.3998C12.025 11.2848 11.31 11.9998 10.425 11.9998C9.53995 11.9998 8.82495 11.2848 8.82495 10.3998C8.82495 9.5148 9.53995 8.7998 10.425 8.7998Z" fill="#EA8611"/>
</svg>
