<svg width="30" height="30" viewBox="0 0 30 30" fill="none" xmlns="http://www.w3.org/2000/svg">
<path d="M9.06225 9.06225H9.07475M13.3897 4H10C7.8998 4 6.8497 4 6.04754 4.40873C5.34193 4.76825 4.76825 5.34193 4.40873 6.04754C4 6.8497 4 7.8998 4 10V13.3897C4 14.3069 4 14.7655 4.10361 15.1971C4.19548 15.5797 4.34699 15.9455 4.5526 16.2811C4.7845 16.6595 5.10879 16.9838 5.75736 17.6324L11.6324 23.5074C13.1174 24.9924 13.86 25.735 14.7161 26.0131C15.4694 26.2579 16.2806 26.2579 17.0339 26.0131C17.89 25.735 18.6326 24.9924 20.1176 23.5074L23.5074 20.1176C24.9924 18.6326 25.735 17.89 26.0131 17.0339C26.2579 16.2806 26.2579 15.4694 26.0131 14.7161C25.735 13.86 24.9924 13.1174 23.5074 11.6324L17.6324 5.75736C16.9838 5.10879 16.6595 4.7845 16.2811 4.5526C15.9455 4.34699 15.5797 4.19548 15.1971 4.10361C14.7655 4 14.3069 4 13.3897 4ZM9.68725 9.06225C9.68725 9.40744 9.40744 9.68725 9.06225 9.68725C8.71707 9.68725 8.43725 9.40744 8.43725 9.06225C8.43725 8.71707 8.71707 8.43725 9.06225 8.43725C9.40744 8.43725 9.68725 8.71707 9.68725 9.06225Z" stroke="#24232A" stroke-width="3" stroke-linecap="round" stroke-linejoin="round"/>
</svg>
