<svg width="32" height="32" viewBox="0 0 32 32" fill="none" xmlns="http://www.w3.org/2000/svg">
<g clip-path="url(#clip0_865_1046)">
<path d="M17.3334 17.3333C20.2788 17.3333 22.6667 19.7212 22.6667 22.6667V24.6667C22.6667 25.7712 21.7712 26.6667 20.6667 26.6667H4.66669C3.56211 26.6667 2.66669 25.7712 2.66669 24.6667V22.6667C2.66669 19.7212 5.0545 17.3333 8.00002 17.3333H17.3334ZM25.3334 17.3336C27.5426 17.3336 29.3334 19.1245 29.3334 21.3336V23.3336C29.3334 24.4383 28.4379 25.3336 27.3334 25.3336H25.3334V22.6667C25.3334 20.486 24.2864 18.55 22.6678 17.3336H25.3334ZM12.6667 4C15.9804 4 18.6667 6.68629 18.6667 10C18.6667 13.3137 15.9804 16 12.6667 16C9.35298 16 6.66669 13.3137 6.66669 10C6.66669 6.68629 9.35298 4 12.6667 4ZM24 8C26.2092 8 28 9.79087 28 12C28 14.2092 26.2092 16 24 16C21.7908 16 20 14.2092 20 12C20 9.79087 21.7908 8 24 8Z" fill="#EA8611"/>
</g>
<defs>
<clipPath id="clip0_865_1046">
<rect width="32" height="32" fill="white"/>
</clipPath>
</defs>
</svg>
