<svg width="32" height="32" viewBox="0 0 32 32" fill="none" xmlns="http://www.w3.org/2000/svg">
<g clip-path="url(#clip0_865_1002)">
<path fill-rule="evenodd" clip-rule="evenodd" d="M17.3333 17.3333C20.2788 17.3333 22.6666 19.7212 22.6666 22.6667V25.3333C22.6666 26.0697 22.0697 26.6667 21.3333 26.6667C20.5969 26.6667 20 26.0697 20 25.3333V22.6667C20 21.1939 18.8061 20 17.3333 20H7.99996C6.5272 20 5.33329 21.1939 5.33329 22.6667V25.3333C5.33329 26.0697 4.73633 26.6667 3.99996 26.6667C3.26359 26.6667 2.66663 26.0697 2.66663 25.3333V22.6667C2.66663 19.7212 5.05444 17.3333 7.99996 17.3333H17.3333ZM25.3332 17.3336C27.5424 17.3336 29.3332 19.1245 29.3332 21.3336V24.0003C29.3332 24.7367 28.7362 25.3336 27.9998 25.3336C27.2636 25.3336 26.6665 24.7367 26.6665 24.0003V21.3336C26.6665 20.5973 26.0696 20.0003 25.3332 20.0003H23.4454C22.9816 18.9387 22.2493 18.0212 21.3344 17.3336H25.3332ZM12.6666 4C15.9804 4 18.6666 6.68629 18.6666 10C18.6666 13.3137 15.9804 16 12.6666 16C9.35288 16 6.6666 13.3137 6.6666 10C6.6666 6.68629 9.35288 4 12.6666 4ZM24 8C26.2092 8 28 9.79087 28 12C28 14.2092 26.2092 16 24 16C21.7908 16 20 14.2092 20 12C20 9.79087 21.7908 8 24 8ZM12.6666 6.66667C10.8256 6.66667 9.33327 8.15905 9.33327 10C9.33327 11.8409 10.8256 13.3333 12.6666 13.3333C14.5076 13.3333 16 11.8409 16 10C16 8.15905 14.5076 6.66667 12.6666 6.66667ZM24 10.6667C23.2636 10.6667 22.6666 11.2636 22.6666 12C22.6666 12.7364 23.2636 13.3333 24 13.3333C24.7364 13.3333 25.3333 12.7364 25.3333 12C25.3333 11.2636 24.7364 10.6667 24 10.6667Z" fill="#24232A"/>
</g>
<defs>
<clipPath id="clip0_865_1002">
<rect width="32" height="32" fill="white"/>
</clipPath>
</defs>
</svg>
